<svg width="332" height="402" viewBox="0 0 332 402" fill="none" xmlns="http://www.w3.org/2000/svg">
<rect y="-0.000488281" width="332" height="402" fill="#BCBCBC"/>
<path d="M215.438 214.25H106.562C99.6243 214.25 94 208.625 94 201.687V126.312C94 119.374 99.6243 113.75 106.562 113.75H215.438C222.376 113.75 228 119.374 228 126.312V201.687C228 208.625 222.376 214.25 215.438 214.25ZM123.312 128.406C115.218 128.406 108.656 134.968 108.656 143.062C108.656 151.156 115.218 157.718 123.312 157.718C131.407 157.718 137.969 151.156 137.969 143.062C137.969 134.968 131.407 128.406 123.312 128.406ZM110.75 197.5H211.25V168.187L188.346 145.283C187.119 144.056 185.131 144.056 183.904 145.283L148.438 180.75L133.908 166.22C132.682 164.994 130.693 164.994 129.467 166.22L110.75 184.937V197.5Z" fill="white" fill-opacity="0.4"/>
</svg>
