<svg width="83" height="83" viewBox="0 0 83 83" fill="none" xmlns="http://www.w3.org/2000/svg">
<path d="M11.53 24.321V39H15.394V35.115L17.032 33.288L20.812 39H25.474L19.741 30.306L25.138 24.321H20.455L15.394 29.991V24.321H11.53ZM28.7185 38.454C29.6005 38.916 30.6505 39.126 31.8475 39.126C33.0235 39.126 34.0735 38.916 34.9555 38.454C35.8375 37.992 36.5305 37.341 37.0135 36.501C37.4965 35.661 37.7485 34.695 37.7485 33.582C37.7485 32.49 37.4965 31.503 37.0135 30.663C36.5305 29.823 35.8375 29.193 34.9555 28.731C34.0735 28.269 33.0235 28.038 31.8475 28.038C30.6505 28.038 29.6005 28.269 28.7185 28.731C27.8365 29.193 27.1435 29.823 26.6605 30.663C26.1775 31.503 25.9465 32.49 25.9465 33.582C25.9465 34.695 26.1775 35.661 26.6605 36.501C27.1435 37.341 27.8365 37.992 28.7185 38.454ZM33.4645 35.514C33.0655 35.997 32.5195 36.228 31.8475 36.228C31.1545 36.228 30.6085 35.997 30.2305 35.514C29.8315 35.031 29.6425 34.38 29.6425 33.582C29.6425 32.784 29.8315 32.154 30.2305 31.671C30.6085 31.188 31.1545 30.936 31.8475 30.936C32.5195 30.936 33.0655 31.188 33.4645 31.671C33.8425 32.154 34.0525 32.784 34.0525 33.582C34.0525 34.38 33.8425 35.031 33.4645 35.514ZM42.7143 35.367H39.3333C39.3963 36.522 39.9213 37.446 40.9083 38.118C41.8743 38.79 43.1553 39.126 44.7303 39.126C45.7803 39.126 46.6833 38.979 47.4813 38.685C48.2793 38.391 48.8883 37.95 49.3293 37.404C49.7493 36.858 49.9803 36.228 49.9803 35.472C49.9803 34.338 49.5603 33.54 48.7623 33.078C47.9643 32.616 46.8303 32.301 45.3813 32.133L44.9613 32.091C44.2053 32.028 43.7013 31.944 43.4283 31.86C43.1343 31.776 43.0083 31.608 43.0083 31.356C43.0083 31.062 43.1343 30.852 43.4283 30.684C43.7013 30.537 44.0793 30.453 44.5833 30.453C45.1083 30.453 45.5493 30.558 45.8853 30.768C46.2213 30.978 46.3893 31.23 46.4313 31.545H49.8333C49.7703 30.453 49.2453 29.592 48.2793 28.962C47.2923 28.332 46.0113 27.996 44.4363 27.996C42.9453 27.996 41.7483 28.332 40.8663 29.004C39.9843 29.676 39.5433 30.579 39.5433 31.692C39.5433 32.721 39.9213 33.456 40.6983 33.897C41.4753 34.359 42.6093 34.674 44.1213 34.842C44.8353 34.947 45.3183 35.031 45.6123 35.073C45.9063 35.115 46.1163 35.199 46.2423 35.283C46.3683 35.388 46.4523 35.535 46.4523 35.724C46.4523 36.06 46.2843 36.291 45.9903 36.438C45.6753 36.606 45.2343 36.669 44.6883 36.669C44.1423 36.669 43.7013 36.564 43.3443 36.312C42.9873 36.081 42.7773 35.766 42.7143 35.367ZM52.8263 31.167V35.745C52.8263 36.816 53.0993 37.635 53.6663 38.181C54.2333 38.727 55.0313 39 56.0813 39H58.7903V35.997H57.4463C57.0893 35.997 56.8373 35.934 56.6903 35.766C56.5223 35.619 56.4593 35.367 56.4593 35.01V31.167H58.7903V28.164H56.4593V25.119H52.8263V28.164H51.1253V31.167H52.8263ZM71.6418 36.018H71.4108C71.1588 36.018 70.9908 35.976 70.8858 35.892C70.7808 35.808 70.7388 35.619 70.7388 35.367V32.007C70.7388 30.705 70.2978 29.718 69.4158 29.046C68.5338 28.374 67.2738 28.038 65.6778 28.038C64.1238 28.038 62.9058 28.353 61.9818 28.962C61.0578 29.592 60.5328 30.453 60.4488 31.587H63.9348C63.9558 31.272 64.1028 31.02 64.3968 30.831C64.6908 30.642 65.0478 30.537 65.5098 30.537C65.9928 30.537 66.3918 30.663 66.6858 30.894C66.9798 31.125 67.1478 31.419 67.1478 31.797V32.217H65.5518C63.8298 32.217 62.5068 32.553 61.6038 33.183C60.6798 33.834 60.2388 34.758 60.2388 35.934C60.2388 36.963 60.5958 37.761 61.3518 38.307C62.1078 38.853 63.0948 39.126 64.3128 39.126C65.0898 39.126 65.7618 38.979 66.3288 38.664C66.8748 38.349 67.3578 37.866 67.7778 37.236V37.32C67.7778 37.845 67.9248 38.265 68.2608 38.559C68.5758 38.853 69.1008 39 69.8148 39H71.6418V36.018ZM67.1478 34.464V34.506C67.1268 35.157 66.9378 35.682 66.5598 36.06C66.1818 36.438 65.6988 36.627 65.0898 36.627C64.7118 36.627 64.4178 36.543 64.2078 36.375C63.9978 36.207 63.8928 35.955 63.8928 35.661C63.8928 35.304 64.0398 35.01 64.3548 34.8C64.6488 34.59 65.0688 34.464 65.6148 34.464H67.1478ZM11.53 46.3V61H17.053C18.502 61 19.783 60.685 20.917 60.055C22.051 59.425 22.912 58.564 23.542 57.451C24.172 56.338 24.487 55.078 24.487 53.65C24.487 52.243 24.172 50.983 23.542 49.87C22.912 48.757 22.051 47.875 20.917 47.245C19.783 46.615 18.502 46.3 17.053 46.3H11.53ZM17.053 57.85H15.394V49.45H17.053C18.145 49.45 19.006 49.849 19.615 50.605C20.224 51.382 20.539 52.39 20.539 53.65C20.539 54.91 20.224 55.939 19.615 56.695C19.006 57.472 18.145 57.85 17.053 57.85ZM37.3021 50.164H33.6691V55.456C33.6691 56.338 33.5011 57.031 33.1651 57.493C32.8291 57.955 32.3461 58.186 31.7581 58.186C31.1281 58.186 30.6871 57.976 30.4351 57.514C30.1621 57.073 30.0361 56.38 30.0361 55.456V50.164H26.4031V55.96C26.4031 57.85 26.8021 59.194 27.6211 59.971C28.4191 60.748 29.4481 61.126 30.7081 61.126C31.4011 61.126 31.9891 61.021 32.4721 60.79C32.9551 60.559 33.3961 60.223 33.7951 59.761L34.0681 61H37.3021V50.164Z" fill="white"/>
<circle cx="41.5" cy="41.5" r="40.5" stroke="white" stroke-width="2"/>
</svg>
