<svg width="114" height="114" viewBox="0 0 114 114" fill="none" xmlns="http://www.w3.org/2000/svg">
<path d="M15.9 32.6013V53.5713H21.42V48.0213L23.76 45.4113L29.16 53.5713H35.82L27.63 41.1513L35.34 32.6013H28.65L21.42 40.7013V32.6013H15.9ZM40.455 52.7913C41.715 53.4513 43.215 53.7513 44.925 53.7513C46.605 53.7513 48.105 53.4513 49.365 52.7913C50.625 52.1313 51.615 51.2013 52.305 50.0013C52.995 48.8013 53.355 47.4213 53.355 45.8313C53.355 44.2713 52.995 42.8613 52.305 41.6613C51.615 40.4613 50.625 39.5613 49.365 38.9013C48.105 38.2413 46.605 37.9113 44.925 37.9113C43.215 37.9113 41.715 38.2413 40.455 38.9013C39.195 39.5613 38.205 40.4613 37.515 41.6613C36.825 42.8613 36.495 44.2713 36.495 45.8313C36.495 47.4213 36.825 48.8013 37.515 50.0013C38.205 51.2013 39.195 52.1313 40.455 52.7913ZM47.235 48.5913C46.665 49.2813 45.885 49.6113 44.925 49.6113C43.935 49.6113 43.155 49.2813 42.615 48.5913C42.045 47.9013 41.775 46.9713 41.775 45.8313C41.775 44.6913 42.045 43.7913 42.615 43.1013C43.155 42.4113 43.935 42.0513 44.925 42.0513C45.885 42.0513 46.665 42.4113 47.235 43.1013C47.775 43.7913 48.075 44.6913 48.075 45.8313C48.075 46.9713 47.775 47.9013 47.235 48.5913ZM60.4491 48.3813H55.6191C55.7091 50.0313 56.4591 51.3513 57.8691 52.3113C59.2491 53.2713 61.0791 53.7513 63.3291 53.7513C64.8291 53.7513 66.1191 53.5413 67.2591 53.1213C68.3991 52.7013 69.2691 52.0713 69.8991 51.2913C70.4991 50.5113 70.8291 49.6113 70.8291 48.5313C70.8291 46.9113 70.2291 45.7713 69.0891 45.1113C67.9491 44.4513 66.3291 44.0013 64.2591 43.7613L63.6591 43.7013C62.5791 43.6113 61.8591 43.4913 61.4691 43.3713C61.0491 43.2513 60.8691 43.0113 60.8691 42.6513C60.8691 42.2313 61.0491 41.9313 61.4691 41.6913C61.8591 41.4813 62.3991 41.3613 63.1191 41.3613C63.8691 41.3613 64.4991 41.5113 64.9791 41.8113C65.4591 42.1113 65.6991 42.4713 65.7591 42.9213H70.6191C70.5291 41.3613 69.7791 40.1313 68.3991 39.2313C66.9891 38.3313 65.1591 37.8513 62.9091 37.8513C60.7791 37.8513 59.0691 38.3313 57.8091 39.2913C56.5491 40.2513 55.9191 41.5413 55.9191 43.1313C55.9191 44.6013 56.4591 45.6513 57.5691 46.2813C58.6791 46.9413 60.2991 47.3913 62.4591 47.6313C63.4791 47.7813 64.1691 47.9013 64.5891 47.9613C65.0091 48.0213 65.3091 48.1413 65.4891 48.2613C65.6691 48.4113 65.7891 48.6213 65.7891 48.8913C65.7891 49.3713 65.5491 49.7013 65.1291 49.9113C64.6791 50.1513 64.0491 50.2413 63.2691 50.2413C62.4891 50.2413 61.8591 50.0913 61.3491 49.7313C60.8391 49.4013 60.5391 48.9513 60.4491 48.3813ZM74.8948 42.3813V48.9213C74.8948 50.4513 75.2848 51.6213 76.0948 52.4013C76.9048 53.1813 78.0448 53.5713 79.5448 53.5713H83.4148V49.2813H81.4948C80.9848 49.2813 80.6248 49.1913 80.4148 48.9513C80.1748 48.7413 80.0848 48.3813 80.0848 47.8713V42.3813H83.4148V38.0913H80.0848V33.7413H74.8948V38.0913H72.4648V42.3813H74.8948ZM101.774 49.3113H101.444C101.084 49.3113 100.844 49.2513 100.694 49.1313C100.544 49.0113 100.484 48.7413 100.484 48.3813V43.5813C100.484 41.7213 99.8541 40.3113 98.5941 39.3513C97.3341 38.3913 95.5341 37.9113 93.2541 37.9113C91.0341 37.9113 89.2941 38.3613 87.9741 39.2313C86.6541 40.1313 85.9041 41.3613 85.7841 42.9813H90.7641C90.7941 42.5313 91.0041 42.1713 91.4241 41.9013C91.8441 41.6313 92.3541 41.4813 93.0141 41.4813C93.7041 41.4813 94.2741 41.6613 94.6941 41.9913C95.1141 42.3213 95.3541 42.7413 95.3541 43.2813V43.8813H93.0741C90.6141 43.8813 88.7241 44.3613 87.4341 45.2613C86.1141 46.1913 85.4841 47.5113 85.4841 49.1913C85.4841 50.6613 85.9941 51.8013 87.0741 52.5813C88.1541 53.3613 89.5641 53.7513 91.3041 53.7513C92.4141 53.7513 93.3741 53.5413 94.1841 53.0913C94.9641 52.6413 95.6541 51.9513 96.2541 51.0513V51.1713C96.2541 51.9213 96.4641 52.5213 96.9441 52.9413C97.3941 53.3613 98.1441 53.5713 99.1641 53.5713H101.774V49.3113ZM95.3541 47.0913V47.1513C95.3241 48.0813 95.0541 48.8313 94.5141 49.3713C93.9741 49.9113 93.2841 50.1813 92.4141 50.1813C91.8741 50.1813 91.4541 50.0613 91.1541 49.8213C90.8541 49.5813 90.7041 49.2213 90.7041 48.8013C90.7041 48.2913 90.9141 47.8713 91.3641 47.5713C91.7841 47.2713 92.3841 47.0913 93.1641 47.0913H95.3541ZM15.9 59.5713V80.5713H23.79C25.86 80.5713 27.69 80.1213 29.31 79.2213C30.93 78.3213 32.16 77.0913 33.06 75.5013C33.96 73.9113 34.41 72.1113 34.41 70.0713C34.41 68.0613 33.96 66.2613 33.06 64.6713C32.16 63.0813 30.93 61.8213 29.31 60.9213C27.69 60.0213 25.86 59.5713 23.79 59.5713H15.9ZM23.79 76.0713H21.42V64.0713H23.79C25.35 64.0713 26.58 64.6413 27.45 65.7213C28.32 66.8313 28.77 68.2713 28.77 70.0713C28.77 71.8713 28.32 73.3413 27.45 74.4213C26.58 75.5313 25.35 76.0713 23.79 76.0713ZM52.7173 65.0913H47.5273V72.6513C47.5273 73.9113 47.2873 74.9013 46.8073 75.5613C46.3273 76.2213 45.6373 76.5513 44.7973 76.5513C43.8973 76.5513 43.2673 76.2513 42.9073 75.5913C42.5173 74.9613 42.3373 73.9713 42.3373 72.6513V65.0913H37.1473V73.3713C37.1473 76.0713 37.7173 77.9913 38.8873 79.1013C40.0273 80.2113 41.4973 80.7513 43.2973 80.7513C44.2873 80.7513 45.1273 80.6013 45.8173 80.2713C46.5073 79.9413 47.1373 79.4613 47.7073 78.8013L48.0973 80.5713H52.7173V65.0913Z" fill="black"/>
<circle cx="57" cy="57" r="55.5" stroke="black" stroke-width="3"/>
</svg>
