<svg width="19" height="19" viewBox="0 0 19 19" fill="none" xmlns="http://www.w3.org/2000/svg">
<path d="M2.26758 4.53516C3.51993 4.53516 4.53516 3.51993 4.53516 2.26758C4.53516 1.01523 3.51993 0 2.26758 0C1.01523 0 0 1.01523 0 2.26758C0 3.51993 1.01523 4.53516 2.26758 4.53516Z" fill="#2C4B9C"/>
<path d="M6.67545 6.25329V18.8338H10.5815V12.6125C10.5815 10.9709 10.8904 9.38106 12.9258 9.38106C14.9332 9.38106 14.9581 11.2579 14.9581 12.7161V18.8348H18.8663V11.9357C18.8663 8.54678 18.1367 5.94238 14.1757 5.94238C12.2739 5.94238 10.9992 6.98601 10.4779 7.97367H10.425V6.25329H6.67545ZM0.310059 6.25329H4.22236V18.8338H0.310059V6.25329Z" fill="#2C4B9C"/>
</svg>
