<svg width="22" height="26" viewBox="0 0 22 26" fill="none" xmlns="http://www.w3.org/2000/svg">
<path d="M20.7626 10.7934C20.7626 18.1983 11.3081 24.5454 11.3081 24.5454C11.3081 24.5454 1.85352 18.1983 1.85352 10.7934C1.85352 8.26833 2.84962 5.84671 4.62269 4.06124C6.39576 2.27577 8.80056 1.27271 11.3081 1.27271C13.8156 1.27271 16.2204 2.27577 17.9934 4.06124C19.7665 5.84671 20.7626 8.26833 20.7626 10.7934Z" stroke="#2C4B9C" stroke-width="2" stroke-linecap="round" stroke-linejoin="round"/>
<path d="M11.3082 14.3635C13.3165 14.3635 14.9446 12.7355 14.9446 10.7272C14.9446 8.71888 13.3165 7.09082 11.3082 7.09082C9.29993 7.09082 7.67188 8.71888 7.67188 10.7272C7.67188 12.7355 9.29993 14.3635 11.3082 14.3635Z" stroke="#2C4B9C" stroke-width="2" stroke-linecap="round" stroke-linejoin="round"/>
</svg>
