<svg width="26" height="26" viewBox="0 0 26 26" fill="none" xmlns="http://www.w3.org/2000/svg">
<path d="M24.1506 6.85791C23.8746 5.81879 23.0615 5.00041 22.0291 4.72268C20.1578 4.21802 12.6541 4.21802 12.6541 4.21802C12.6541 4.21802 5.15048 4.21802 3.27914 4.72268C2.24674 5.00046 1.43364 5.81879 1.15766 6.85791C0.65625 8.74138 0.65625 12.6711 0.65625 12.6711C0.65625 12.6711 0.65625 16.6007 1.15766 18.4842C1.43364 19.5233 2.24674 20.3076 3.27914 20.5853C5.15048 21.09 12.6541 21.09 12.6541 21.09C12.6541 21.09 20.1578 21.09 22.0291 20.5853C23.0615 20.3076 23.8746 19.5233 24.1506 18.4842C24.652 16.6007 24.652 12.6711 24.652 12.6711C24.652 12.6711 24.652 8.74138 24.1506 6.85791ZM10.2 16.2389V9.10321L16.4716 12.6711L10.2 16.2389Z" fill="#2C4B9C"/>
</svg>
