<svg width="43" height="42" viewBox="0 0 43 42" fill="none" xmlns="http://www.w3.org/2000/svg">
<circle cx="21.9747" cy="20.9916" r="20.9916" fill="white" fill-opacity="0.1"/>
<path d="M15.9147 16.1216C17.0528 16.1216 17.9755 15.1989 17.9755 14.0608C17.9755 12.9226 17.0528 12 15.9147 12C14.7765 12 13.8539 12.9226 13.8539 14.0608C13.8539 15.1989 14.7765 16.1216 15.9147 16.1216Z" fill="white"/>
<path d="M19.9209 17.6829V29.1162H23.4708V23.4622C23.4708 21.9703 23.7514 20.5255 25.6012 20.5255C27.4256 20.5255 27.4482 22.2312 27.4482 23.5564V29.1171H31V22.8472C31 19.7673 30.3369 17.4004 26.7371 17.4004C25.0088 17.4004 23.8503 18.3488 23.3766 19.2464H23.3285V17.6829H19.9209V17.6829ZM14.136 17.6829H17.6915V29.1162H14.136V17.6829Z" fill="white"/>
</svg>
