<svg width="42" height="42" viewBox="0 0 42 42" fill="none" xmlns="http://www.w3.org/2000/svg">
<circle cx="20.9916" cy="20.9916" r="20.9916" fill="white" fill-opacity="0.1"/>
<path d="M30.948 16.2326C30.6972 15.2883 29.9583 14.5445 29.02 14.2921C27.3194 13.8335 20.5 13.8335 20.5 13.8335C20.5 13.8335 13.6807 13.8335 11.98 14.2921C11.0417 14.5446 10.3028 15.2883 10.052 16.2326C9.59628 17.9443 9.59628 21.5157 9.59628 21.5157C9.59628 21.5157 9.59628 25.087 10.052 26.7987C10.3028 27.743 11.0417 28.4558 11.98 28.7082C13.6807 29.1668 20.5 29.1668 20.5 29.1668C20.5 29.1668 27.3193 29.1668 29.02 28.7082C29.9583 28.4558 30.6972 27.743 30.948 26.7987C31.4037 25.087 31.4037 21.5157 31.4037 21.5157C31.4037 21.5157 31.4037 17.9443 30.948 16.2326ZM18.2697 24.7581V18.2732L23.9693 21.5157L18.2697 24.7581Z" fill="white"/>
</svg>
