<svg width="48" height="47" viewBox="0 0 48 47" fill="none" xmlns="http://www.w3.org/2000/svg">
<circle cx="24" cy="23.098" r="22.598" stroke="#999999"/>
<path d="M17.3318 17.7393C18.5842 17.7393 19.5994 16.724 19.5994 15.4717C19.5994 14.2193 18.5842 13.2041 17.3318 13.2041C16.0795 13.2041 15.0642 14.2193 15.0642 15.4717C15.0642 16.724 16.0795 17.7393 17.3318 17.7393Z" fill="#999999"/>
<path d="M21.7401 19.4574V32.0379H25.6462V25.8166C25.6462 24.175 25.955 22.5852 27.9904 22.5852C29.9979 22.5852 30.0228 24.462 30.0228 25.9202V32.0389H33.9309V25.1398C33.9309 21.7509 33.2013 19.1465 29.2403 19.1465C27.3386 19.1465 26.0638 20.1901 25.5425 21.1778H25.4897V19.4574H21.7401ZM15.3747 19.4574H19.287V32.0379H15.3747V19.4574Z" fill="#999999"/>
</svg>
