<svg width="47" height="47" viewBox="0 0 47 47" fill="none" xmlns="http://www.w3.org/2000/svg">
<circle cx="23.098" cy="23.098" r="22.598" stroke="#999999"/>
<path d="M34.0536 17.8613C33.7776 16.8222 32.9645 16.0038 31.9321 15.7261C30.0608 15.2214 22.5571 15.2214 22.5571 15.2214C22.5571 15.2214 15.0535 15.2214 13.1822 15.7261C12.1498 16.0039 11.3367 16.8222 11.0607 17.8613C10.5593 19.7448 10.5593 23.6745 10.5593 23.6745C10.5593 23.6745 10.5593 27.6042 11.0607 29.4876C11.3367 30.5267 12.1498 31.311 13.1822 31.5888C15.0535 32.0934 22.5571 32.0934 22.5571 32.0934C22.5571 32.0934 30.0608 32.0934 31.9321 31.5888C32.9645 31.311 33.7776 30.5267 34.0536 29.4876C34.555 27.6042 34.555 23.6745 34.555 23.6745C34.555 23.6745 34.555 19.7448 34.0536 17.8613ZM20.103 27.2423V20.1066L26.3746 23.6746L20.103 27.2423Z" fill="#999999"/>
</svg>
